<svg version="1.1" id="Layer_1" xmlns="http://www.w3.org/2000/svg" xmlns:xlink="http://www.w3.org/1999/xlink" x="0px" y="0px"
	 viewBox="0 0 605.667 275.854" enable-background="new 0 0 605.667 275.854"
	 xml:space="preserve" fill="#ffffff">
<g>
	<defs>
		<rect id="SVGID_1_" width="605.667" height="275.854"/>
	</defs>
	<clipPath id="SVGID_2_">
		<use xlink:href="#SVGID_1_"  overflow="visible"/>
	</clipPath>
	<g clip-path="url(#SVGID_2_)" enable-background="new    ">
		<g>
			<defs>
				<rect id="SVGID_3_" x="277.163" y="30.253" width="332.108" height="135.586"/>
			</defs>
			<clipPath id="SVGID_4_">
				<use xlink:href="#SVGID_3_"  overflow="visible"/>
			</clipPath>
			<g clip-path="url(#SVGID_4_)" enable-background="new    ">
				<g>
					<defs>
						<rect id="SVGID_5_" x="277.163" y="30.253" width="332.108" height="135.586"/>
					</defs>
					<clipPath id="SVGID_6_">
						<use xlink:href="#SVGID_5_"  overflow="visible"/>
					</clipPath>
					<g clip-path="url(#SVGID_6_)">
						<path d="M285.125,124.489V45.862h33.067c8.315,0,14.357,0.707,18.126,2.119
							c3.769,1.413,6.785,3.924,9.05,7.535c2.265,3.612,3.397,7.742,3.397,12.39c0,5.899-1.717,10.772-5.148,14.615
							c-3.433,3.844-8.564,6.267-15.393,7.267c3.396,2.003,6.2,4.202,8.412,6.597c2.211,2.396,5.193,6.65,8.944,12.765l9.501,15.339
							h-18.79l-11.358-17.109c-4.034-6.114-6.794-9.966-8.28-11.558c-1.486-1.591-3.062-2.682-4.724-3.272
							c-1.664-0.59-4.3-0.885-7.909-0.885h-3.185v32.824H285.125z M300.836,79.115h11.624c7.537,0,12.243-0.322,14.119-0.965
							c1.875-0.644,3.344-1.751,4.405-3.326c1.062-1.573,1.592-3.54,1.592-5.899c0-2.646-0.698-4.782-2.096-6.409
							c-1.398-1.627-3.371-2.655-5.919-3.084c-1.273-0.179-5.095-0.268-11.465-0.268h-12.261V79.115z"/>
						<path d="M433.744,124.489h-17.092l-6.794-17.86h-31.104l-6.422,17.86h-16.667l30.308-78.627h16.613
							L433.744,124.489z M404.816,93.381l-10.722-29.177l-10.51,29.177H404.816z"/>
						<path d="M441.864,124.489V45.862h23.514l14.119,53.634l13.959-53.634h23.566v78.627h-14.596V62.595
							l-15.446,61.894h-15.127l-15.393-61.894v61.894H441.864z"/>
						<path d="M529.442,85.658c0-8.009,1.186-14.73,3.557-20.166c1.769-4.004,4.184-7.598,7.245-10.78
							c3.061-3.182,6.413-5.542,10.059-7.08c4.848-2.074,10.438-3.111,16.772-3.111c11.465,0,20.638,3.593,27.521,10.78
							c6.882,7.187,10.324,17.181,10.324,29.981c0,12.693-3.415,22.625-10.244,29.793c-6.83,7.169-15.959,10.753-27.389,10.753
							c-11.57,0-20.771-3.566-27.601-10.7S529.442,98.173,529.442,85.658z M545.632,85.122c0,8.903,2.034,15.653,6.104,20.247
							c4.069,4.595,9.235,6.892,15.499,6.892c6.263,0,11.402-2.279,15.419-6.838c4.016-4.559,6.024-11.397,6.024-20.515
							c0-9.011-1.955-15.732-5.865-20.167c-3.91-4.433-9.103-6.65-15.578-6.65s-11.695,2.244-15.658,6.731
							C547.613,69.309,545.632,76.076,545.632,85.122z"/>
					</g>
				</g>
			</g>
		</g>
	</g>
	<g clip-path="url(#SVGID_2_)" enable-background="new    ">
		<g>
			<defs>
				<rect id="SVGID_7_" x="281.323" y="126.424" width="324.111" height="63.38"/>
			</defs>
			<clipPath id="SVGID_8_">
				<use xlink:href="#SVGID_7_"  overflow="visible"/>
			</clipPath>
			<g clip-path="url(#SVGID_8_)" enable-background="new    ">
				<g>
					<defs>
						<rect id="SVGID_9_" x="281.323" y="126.424" width="324.111" height="63.38"/>
					</defs>
					<clipPath id="SVGID_10_">
						<use xlink:href="#SVGID_9_"  overflow="visible"/>
					</clipPath>
					<g clip-path="url(#SVGID_10_)">
						<path d="M285.057,170.475v-36.754h27.242v6.218h-19.824v8.147h18.445v6.192h-18.445v10.004H313v6.192H285.057z
							"/>
						<path d="M317.411,158.516l7.218-0.702c0.434,2.424,1.315,4.204,2.644,5.341s3.12,1.704,5.376,1.704
							c2.389,0,4.188-0.505,5.4-1.517c1.211-1.011,1.816-2.193,1.816-3.548c0-0.868-0.255-1.608-0.764-2.219
							c-0.51-0.609-1.399-1.141-2.669-1.592c-0.869-0.301-2.849-0.836-5.939-1.604c-3.977-0.986-6.767-2.197-8.37-3.635
							c-2.256-2.022-3.384-4.488-3.384-7.396c0-1.872,0.53-3.623,1.592-5.252c1.061-1.629,2.589-2.871,4.586-3.723
							c1.996-0.852,4.406-1.278,7.229-1.278c4.611,0,8.082,1.011,10.413,3.034s3.555,4.722,3.672,8.098l-7.418,0.325
							c-0.318-1.889-0.999-3.246-2.043-4.074c-1.044-0.827-2.61-1.24-4.699-1.24c-2.155,0-3.843,0.442-5.062,1.328
							c-0.786,0.568-1.178,1.329-1.178,2.282c0,0.869,0.367,1.612,1.103,2.23c0.936,0.786,3.207,1.605,6.816,2.457
							c3.608,0.853,6.277,1.734,8.007,2.646s3.082,2.156,4.06,3.735c0.978,1.58,1.466,3.531,1.466,5.854
							c0,2.105-0.585,4.078-1.754,5.916c-1.17,1.839-2.823,3.206-4.962,4.1s-4.804,1.341-7.994,1.341
							c-4.646,0-8.212-1.073-10.701-3.221S317.896,162.627,317.411,158.516z"/>
						<path d="M361.793,170.475v-30.536h-10.901v-6.218h29.196v6.218h-10.877v30.536H361.793z"/>
						<path d="M384.824,133.721h7.418v19.907c0,3.159,0.092,5.206,0.276,6.143c0.316,1.504,1.073,2.712,2.268,3.622
							c1.194,0.911,2.828,1.367,4.899,1.367c2.105,0,3.692-0.431,4.762-1.292c1.069-0.86,1.712-1.918,1.93-3.171
							c0.217-1.254,0.325-3.335,0.325-6.243v-20.333h7.419v19.305c0,4.412-0.201,7.529-0.602,9.352
							c-0.401,1.821-1.141,3.359-2.218,4.612c-1.078,1.254-2.52,2.253-4.323,2.996c-1.805,0.744-4.16,1.116-7.067,1.116
							c-3.509,0-6.169-0.405-7.981-1.216c-1.813-0.811-3.246-1.864-4.298-3.159c-1.053-1.295-1.746-2.653-2.08-4.074
							c-0.485-2.105-0.728-5.215-0.728-9.326V133.721z"/>
						<path d="M421.914,133.721h13.558c3.058,0,5.389,0.234,6.992,0.702c2.155,0.635,4.001,1.764,5.538,3.385
							c1.537,1.622,2.707,3.606,3.509,5.955c0.802,2.348,1.203,5.244,1.203,8.687c0,3.025-0.376,5.633-1.128,7.822
							c-0.919,2.675-2.23,4.839-3.935,6.493c-1.286,1.254-3.024,2.231-5.213,2.934c-1.637,0.519-3.826,0.777-6.565,0.777h-13.959
							V133.721z M429.332,139.939v24.344h5.538c2.072,0,3.567-0.117,4.486-0.352c1.203-0.301,2.201-0.811,2.995-1.529
							c0.793-0.718,1.44-1.9,1.941-3.547c0.502-1.646,0.752-3.891,0.752-6.731c0-2.842-0.25-5.022-0.752-6.544
							c-0.501-1.521-1.202-2.708-2.104-3.561s-2.047-1.429-3.434-1.729c-1.036-0.234-3.066-0.351-6.09-0.351H429.332z"/>
						<path d="M492.135,170.475h-8.069l-3.208-8.349h-14.686l-3.032,8.349h-7.869l14.31-36.754h7.844
							L492.135,170.475z M478.477,155.934l-5.063-13.639l-4.962,13.639H478.477z"/>
						<path d="M496.145,170.475v-36.754h7.217l15.037,24.544v-24.544h6.892v36.754h-7.443l-14.811-23.968v23.968
							H496.145z"/>
						<path d="M541.404,170.475v-30.536h-10.901v-6.218h29.196v6.218h-10.877v30.536H541.404z"/>
						<path d="M564.26,170.475v-36.754h7.418v36.754H564.26z"/>
						<path d="M578.945,170.475v-36.453h7.418v30.261h18.444v6.192H578.945z"/>
					</g>
				</g>
			</g>
		</g>
	</g>
	<g clip-path="url(#SVGID_2_)" enable-background="new    ">
		<g>
			<defs>
				<rect id="SVGID_11_" x="281.275" y="168.356" width="324.193" height="90.188"/>
			</defs>
			<clipPath id="SVGID_12_">
				<use xlink:href="#SVGID_11_"  overflow="visible"/>
			</clipPath>
			<g clip-path="url(#SVGID_12_)" enable-background="new    ">
				<g>
					<defs>
						<rect id="SVGID_13_" x="281.275" y="168.356" width="324.193" height="90.188"/>
					</defs>
					<clipPath id="SVGID_14_">
						<use xlink:href="#SVGID_13_"  overflow="visible"/>
					</clipPath>
					<g clip-path="url(#SVGID_14_)">
						<path d="M285.579,231.039v-52.3h9.099v52.3H285.579z"/>
						<path d="M303.348,231.039v-52.3h33.415v8.847h-24.316v11.595h22.626v8.813h-22.626v14.234h25.177v8.812
							H303.348z"/>
						<path d="M345.339,231.039v-52.3h33.416v8.847h-24.316v11.595h22.625v8.813h-22.625v14.234h25.177v8.812
							H345.339z"/>
						<path d="M387.331,231.039v-52.3h33.416v8.847h-24.316v11.595h22.625v8.813h-22.625v14.234h25.177v8.812
							H387.331z"/>
						<path d="M445.77,217.089v-10.024h16.969v10.024H445.77z"/>
						<path d="M485.21,178.739h9.1v28.326c0,4.495,0.112,7.408,0.338,8.74c0.39,2.141,1.316,3.859,2.782,5.155
							c1.465,1.297,3.469,1.944,6.01,1.944c2.582,0,4.529-0.612,5.841-1.838c1.312-1.225,2.101-2.729,2.367-4.513
							c0.266-1.783,0.399-4.745,0.399-8.883v-28.933h9.1v27.47c0,6.279-0.246,10.715-0.738,13.307
							c-0.491,2.593-1.398,4.781-2.721,6.564c-1.321,1.784-3.089,3.205-5.303,4.264c-2.213,1.058-5.103,1.587-8.669,1.587
							c-4.304,0-7.567-0.576-9.79-1.729c-2.225-1.153-3.981-2.652-5.272-4.495c-1.291-1.844-2.142-3.776-2.552-5.798
							c-0.595-2.997-0.892-7.42-0.892-13.271V178.739z"/>
						<path d="M530.736,231.039v-52.3h33.416v8.847h-24.316v11.595h22.625v8.813h-22.625v14.234h25.177v8.812
							H530.736z"/>
						<path d="M572.975,231.039v-51.872h9.1v43.061h22.625v8.812H572.975z"/>
					</g>
				</g>
			</g>
		</g>
	</g>
	<path clip-path="url(#SVGID_2_)" d="M134.606,0.595c-0.159,0.003-0.326,0.003-0.489,0.014
		c-12.097,0.758-10.228,21.425-63.59,74.671c-52.244,52.13-70.264,53.985-70.369,65.414c-0.104,11.287,13.082,5.59,67.788,58.755
		c64.894,63.065,59.901,76.468,70.181,76.404c11.544-0.071,8.57-15.902,69.618-79.596c50.477-52.664,66.539-49.608,66.171-60.78
		c-0.347-10.509-18.143-8.896-77.35-66.858C144.194,17.349,144.574,0.485,134.606,0.595L134.606,0.595z M135.746,35.278
		c0.138-0.002,0.271,0.003,0.401,0.013c17.966,1.176,102.794,83.338,102.728,102.263c-0.071,20.411-83.105,103.312-100.56,103.338
		C120.86,240.928,34.59,157.412,34.81,140.34C34.448,122.765,118.208,35.578,135.746,35.278L135.746,35.278z"/>
	<path clip-path="url(#SVGID_2_)" d="M136.271,41.997c-15.382-1.014-94.152,81.453-93.814,97.971
		c-0.204,15.921,79.66,93.8,95.819,93.774c16.159-0.025,93.032-77.344,93.098-96.379C231.435,119.715,152.903,43.093,136.271,41.997
		 M134.982,62.257c36.093,0,36.093,50.65,6.015,50.65l2.005,34.442h-14.036l2.005-38.494H118.94L134.982,62.257z M126.961,206.103
		l2.005-28.364h16.042l2.005,28.364H126.961z M138.992,176.002c-4.294,0.001-14.55-0.242-14.55-0.242
		c-2.514,0.473-11.517-0.051-11.517-0.051s-0.338-0.385-6.016-6.078h28.073l-8.021-4.052h-24.062l-6.016-6.078
		c0,0,30.782-0.121,38.099,0c0.133,0.002-8.021-4.053-8.021-4.053H92.873l-6.016-6.077v-32.417l6.016-6.078v38.495h4.01v-42.546
		l6.016-6.078v48.625h4.01V96.695l6.016-8.104v60.78v0.003c0.213,0.216,13.065-0.126,22.057,0
		c50.812-0.156,55.004-15.644,34.517-22.43l-8.163,2.171l-4.87-12.735l27.499,6.801l-5.585,1.592
		C208.461,139.478,184.174,175.995,138.992,176.002"/>
</g>
</svg>
