<svg xmlns:dc="http://purl.org/dc/elements/1.1/" xmlns:cc="http://creativecommons.org/ns#" xmlns:rdf="http://www.w3.org/1999/02/22-rdf-syntax-ns#"
  xmlns:svg="http://www.w3.org/2000/svg" xmlns="http://www.w3.org/2000/svg" viewBox="0 0 367.80533 367.80533"
  xml:space="preserve" id="svg2" version="1.1">
  <defs id="defs6">
    <clipPath id="clipPath18" clipPathUnits="userSpaceOnUse">
      <path id="path16" d="M 0,275.854 H 605.667 V 0 H 0 Z" />
    </clipPath>
    <clipPath id="clipPath26" clipPathUnits="userSpaceOnUse">
      <path id="path24" d="M 277.163,245.601 H 609.272 V 110.015 H 277.163 Z" />
    </clipPath>
    <clipPath id="clipPath30" clipPathUnits="userSpaceOnUse">
      <path id="path28" d="M 277.163,245.601 H 609.272 V 110.015 H 277.163 Z" />
    </clipPath>
    <clipPath id="clipPath54" clipPathUnits="userSpaceOnUse">
      <path id="path52" d="M 281.323,149.43 H 605.435 V 86.0498 H 281.323 Z" />
    </clipPath>
    <clipPath id="clipPath58" clipPathUnits="userSpaceOnUse">
      <path id="path56" d="M 281.323,149.43 H 605.435 V 86.0498 H 281.323 Z" />
    </clipPath>
    <clipPath id="clipPath82" clipPathUnits="userSpaceOnUse">
      <path id="path80" d="M 281.275,107.498 H 605.468 V 17.31 H 281.275 Z" />
    </clipPath>
    <clipPath id="clipPath86" clipPathUnits="userSpaceOnUse">
      <path id="path84" d="M 281.275,107.498 H 605.468 V 17.31 H 281.275 Z" />
    </clipPath>
  </defs>
  <g transform="matrix(1.3333333,0,0,-1.3333333,0,367.80533)" id="g10">
    <g id="g12">
      <g clip-path="url(#clipPath18)" id="g14">
        <g transform="translate(135.746,240.5757)" id="g104">
          <path id="path106" d="m 0,0 c 0.138,0.002 0.271,-0.003 0.401,-0.013 17.966,-1.176 102.794,-83.338 102.728,-102.263 -0.071,-20.411 -83.105,-103.311 -100.56,-103.338 -17.455,-0.036 -103.725,83.481 -103.505,100.552 C -101.298,-87.487 -17.538,-0.3 0,-0.001 Z m -1.14,34.683 c -0.159,-0.003 -0.326,-0.003 -0.489,-0.014 -12.097,-0.758 -10.228,-21.425 -63.59,-74.671 -52.244,-52.13 -70.264,-53.985 -70.369,-65.414 -0.104,-11.287 13.082,-5.589 67.788,-58.754 64.894,-63.066 59.901,-76.468 70.181,-76.405 11.544,0.072 8.57,15.903 69.618,79.596 50.477,52.664 66.539,49.608 66.171,60.78 -0.347,10.509 -18.143,8.896 -77.35,66.858 C 8.448,17.929 8.828,34.793 -1.14,34.682 Z"
          />
        </g>
        <g transform="translate(138.9918,99.8519)" id="g108">
          <path id="path110" d="m 0,0 c -4.294,-0.001 -14.55,0.242 -14.55,0.242 -2.514,-0.473 -11.517,0.051 -11.517,0.051 0,0 -0.338,0.384 -6.016,6.078 H -4.01 l -8.021,4.052 h -24.062 l -6.016,6.078 c 0,0 30.782,0.121 38.099,0 0.133,-0.002 -8.021,4.052 -8.021,4.052 h -34.088 l -6.016,6.078 v 32.416 l 6.016,6.078 V 26.631 h 4.01 v 42.546 l 6.016,6.078 V 26.631 h 4.01 v 52.676 l 6.016,8.104 v -60.78 -0.003 c 0.213,-0.216 13.065,0.126 22.057,0 50.812,0.156 55.004,15.643 34.517,22.43 l -8.163,-2.171 -4.87,12.735 27.499,-6.801 -5.585,-1.592 C 69.469,36.524 45.182,0.007 0,0 m -12.031,-30.101 2.005,28.364 H 6.016 l 2.005,-28.364 z m 8.021,143.846 c 36.093,0 36.093,-50.65 6.015,-50.65 L 4.01,28.653 h -14.036 l 2.005,38.494 h -12.031 z m 1.289,20.26 c -15.382,1.014 -94.152,-81.453 -93.814,-97.971 -0.204,-15.921 79.66,-93.8 95.819,-93.775 16.159,0.026 93.032,77.344 93.098,96.38 0.061,17.648 -78.471,94.27 -95.103,95.366"
          />
        </g>
      </g>
    </g>
  </g>
</svg>
